# xmcd
#
# Track frame offsets:
#	150
#	32095
#	66975
#	85835
#	98850
#	110700
#	128700
#	148425
#	166875
#	188475
#
# Disc length: 2817
#
# Revision: 3
# Processed by: cddbd v1.5.1PL0 Copyright (c) Steve Scherf et al.
# Submitted via: CDex 1.40Beta8
# Normalized: r2:DSETVAR1,TDELIM( - )
#
DISCID=8b0aff0a
DTITLE=Various Artist - The Ultimate Blues Collection Volume Two, Disk 3
DYEAR=1900
DGENRE=
TTITLE0=Champion Jack Dupree - Wine, Wine, Wine
TTITLE1=Champion Jack Dupree - You Can Make It
TTITLE2=Memphis Piano Red - Mother-In-Law-Blues
TTITLE3=Memphis Piano Red - Barrelhouse Blues
TTITLE4=Erwin Helfer And The Chicago All Stars - Sneaky Pete
TTITLE5=Erwin Helfer And The Chicago All Stars - 4 O'Clock Blues
TTITLE6=Tommy Tucker - Blues Had A Baby
TTITLE7=Tommy Tucker - Hard Luck Blues
TTITLE8=Tommy Tucker - Five Long Years
TTITLE9=Tommy Tucker - Drifting Blues
EXTD=
EXTT0=
EXTT1=
EXTT2=
EXTT3=
EXTT4=
EXTT5=
EXTT6=
EXTT7=
EXTT8=
EXTT9=
PLAYORDER=
